<mxfile host="app.diagrams.net" agent="Mozilla/5.0 (X11; Linux x86_64; rv:144.0) Gecko/20100101 Firefox/144.0" version="28.2.8">
  <diagram name="Page-1" id="W6O9B6FC4Bknl5Eh9khC">
    <mxGraphModel dx="5112" dy="4603" grid="1" gridSize="10" guides="1" tooltips="1" connect="1" arrows="1" fold="1" page="1" pageScale="1" pageWidth="850" pageHeight="1100" math="0" shadow="0">
      <root>
        <mxCell id="0" />
        <mxCell id="1" parent="0" />
        <mxCell id="nKMYG4mPL0dKVgIFnyG0-2" value="Player" style="html=1;overflow=block;blockSpacing=1;swimlane;childLayout=stackLayout;horizontal=1;horizontalStack=0;resizeParent=1;resizeParentMax=0;resizeLast=0;collapsible=0;marginBottom=0;swimlaneFillColor=#unset;startSize=25;whiteSpace=wrap;fontSize=16.8;fontStyle=1;align=center;spacing=0;strokeColor=#3a414a;strokeOpacity=100;rounded=1;absoluteArcSize=1;arcSize=9;fillColor=#unset;strokeWidth=NaN;" vertex="1" parent="1">
          <mxGeometry x="-2175" y="-2259" width="283" height="245.25" as="geometry" />
        </mxCell>
        <mxCell id="nKMYG4mPL0dKVgIFnyG0-3" value="&lt;div style=&quot;display: flex; justify-content: center; text-align: center; align-items: baseline; font-size: 0; line-height: 1.25;margin-top: -2px;&quot;&gt;&lt;span&gt;&lt;span style=&quot;font-size:16.8px;&quot;&gt;+ attribute1:type = defaultValue&#xa;&lt;/span&gt;&lt;/span&gt;&lt;/div&gt;&lt;div style=&quot;display: flex; justify-content: center; text-align: center; align-items: baseline; font-size: 0; line-height: 1.25;margin-top: -2px;&quot;&gt;&lt;span&gt;&lt;span style=&quot;font-size:16.8px;&quot;&gt;+ attribute2:type&#xa;&lt;/span&gt;&lt;/span&gt;&lt;/div&gt;&lt;div style=&quot;display: flex; justify-content: center; text-align: center; align-items: baseline; font-size: 0; line-height: 1.25;margin-top: -2px;&quot;&gt;&lt;span&gt;&lt;span style=&quot;font-size:16.8px;&quot;&gt;- attribute3:type&lt;/span&gt;&lt;/span&gt;&lt;/div&gt;" style="part=1;html=1;resizeHeight=0;strokeColor=none;fillColor=none;verticalAlign=middle;spacingLeft=4;spacingRight=4;overflow=hidden;rotatable=0;points=[[0,0.5],[1,0.5]];portConstraint=eastwest;swimlaneFillColor=#unset;strokeOpacity=100;whiteSpace=wrap;fontSize=16.8;align=center;" vertex="1" parent="nKMYG4mPL0dKVgIFnyG0-2">
          <mxGeometry y="25" width="283" height="101" as="geometry" />
        </mxCell>
        <mxCell id="nKMYG4mPL0dKVgIFnyG0-4" value="" style="line;strokeWidth=1;fillColor=none;align=left;verticalAlign=middle;spacingTop=-1;spacingLeft=3;spacingRight=3;rotatable=0;labelPosition=right;points=[];portConstraint=eastwest;" vertex="1" parent="nKMYG4mPL0dKVgIFnyG0-2">
          <mxGeometry y="126" width="283" height="8" as="geometry" />
        </mxCell>
        <mxCell id="nKMYG4mPL0dKVgIFnyG0-5" value="&lt;div style=&quot;display: flex; justify-content: center; text-align: center; align-items: baseline; font-size: 0; line-height: 1.25;margin-top: -2px;&quot;&gt;&lt;span&gt;&lt;span style=&quot;font-size:16.8px;&quot;&gt;+ operation1(params):returnType&#xa;&lt;/span&gt;&lt;/span&gt;&lt;/div&gt;&lt;div style=&quot;display: flex; justify-content: center; text-align: center; align-items: baseline; font-size: 0; line-height: 1.25;margin-top: -2px;&quot;&gt;&lt;span&gt;&lt;span style=&quot;font-size:16.8px;&quot;&gt;- operation2(params)&#xa;&lt;/span&gt;&lt;/span&gt;&lt;/div&gt;&lt;div style=&quot;display: flex; justify-content: center; text-align: center; align-items: baseline; font-size: 0; line-height: 1.25;margin-top: -2px;&quot;&gt;&lt;span&gt;&lt;span style=&quot;font-size:16.8px;&quot;&gt;- operation3()&lt;/span&gt;&lt;/span&gt;&lt;/div&gt;" style="part=1;resizeHeight=0;strokeColor=none;fillColor=none;align=left;verticalAlign=middle;spacingLeft=4;spacingRight=4;rotatable=0;points=[[0,0.5],[1,0.5]];portConstraint=eastwest;swimlaneFillColor=#unset;strokeOpacity=100;whiteSpace=wrap;overflow=block;blockSpacing=1;html=1;fontSize=13;" vertex="1" parent="nKMYG4mPL0dKVgIFnyG0-2">
          <mxGeometry y="134" width="283" height="111.25" as="geometry" />
        </mxCell>
        <mxCell id="nKMYG4mPL0dKVgIFnyG0-6" value="SmartThief" style="html=1;overflow=block;blockSpacing=1;swimlane;childLayout=stackLayout;horizontal=1;horizontalStack=0;resizeParent=1;resizeParentMax=0;resizeLast=0;collapsible=0;marginBottom=0;swimlaneFillColor=#unset;startSize=25;whiteSpace=wrap;fontSize=16.8;fontStyle=1;align=center;spacing=0;strokeColor=#3a414a;strokeOpacity=100;rounded=1;absoluteArcSize=1;arcSize=9;fillColor=#unset;strokeWidth=NaN;" vertex="1" parent="1">
          <mxGeometry x="-1815" y="-2102" width="283" height="245.25" as="geometry" />
        </mxCell>
        <mxCell id="nKMYG4mPL0dKVgIFnyG0-7" value="&lt;div style=&quot;display: flex; justify-content: center; text-align: center; align-items: baseline; font-size: 0; line-height: 1.25;margin-top: -2px;&quot;&gt;&lt;span&gt;&lt;span style=&quot;font-size:16.8px;&quot;&gt;+ attribute1:type = defaultValue&#xa;&lt;/span&gt;&lt;/span&gt;&lt;/div&gt;&lt;div style=&quot;display: flex; justify-content: center; text-align: center; align-items: baseline; font-size: 0; line-height: 1.25;margin-top: -2px;&quot;&gt;&lt;span&gt;&lt;span style=&quot;font-size:16.8px;&quot;&gt;+ attribute2:type&#xa;&lt;/span&gt;&lt;/span&gt;&lt;/div&gt;&lt;div style=&quot;display: flex; justify-content: center; text-align: center; align-items: baseline; font-size: 0; line-height: 1.25;margin-top: -2px;&quot;&gt;&lt;span&gt;&lt;span style=&quot;font-size:16.8px;&quot;&gt;- attribute3:type&lt;/span&gt;&lt;/span&gt;&lt;/div&gt;" style="part=1;html=1;resizeHeight=0;strokeColor=none;fillColor=none;verticalAlign=middle;spacingLeft=4;spacingRight=4;overflow=hidden;rotatable=0;points=[[0,0.5],[1,0.5]];portConstraint=eastwest;swimlaneFillColor=#unset;strokeOpacity=100;whiteSpace=wrap;fontSize=16.8;align=center;" vertex="1" parent="nKMYG4mPL0dKVgIFnyG0-6">
          <mxGeometry y="25" width="283" height="101" as="geometry" />
        </mxCell>
        <mxCell id="nKMYG4mPL0dKVgIFnyG0-8" value="" style="line;strokeWidth=1;fillColor=none;align=left;verticalAlign=middle;spacingTop=-1;spacingLeft=3;spacingRight=3;rotatable=0;labelPosition=right;points=[];portConstraint=eastwest;" vertex="1" parent="nKMYG4mPL0dKVgIFnyG0-6">
          <mxGeometry y="126" width="283" height="8" as="geometry" />
        </mxCell>
        <mxCell id="nKMYG4mPL0dKVgIFnyG0-9" value="&lt;div style=&quot;display: flex; justify-content: center; text-align: center; align-items: baseline; font-size: 0; line-height: 1.25;margin-top: -2px;&quot;&gt;&lt;span&gt;&lt;span style=&quot;font-size:16.8px;&quot;&gt;+ operation1(params):returnType&#xa;&lt;/span&gt;&lt;/span&gt;&lt;/div&gt;&lt;div style=&quot;display: flex; justify-content: center; text-align: center; align-items: baseline; font-size: 0; line-height: 1.25;margin-top: -2px;&quot;&gt;&lt;span&gt;&lt;span style=&quot;font-size:16.8px;&quot;&gt;- operation2(params)&#xa;&lt;/span&gt;&lt;/span&gt;&lt;/div&gt;&lt;div style=&quot;display: flex; justify-content: center; text-align: center; align-items: baseline; font-size: 0; line-height: 1.25;margin-top: -2px;&quot;&gt;&lt;span&gt;&lt;span style=&quot;font-size:16.8px;&quot;&gt;- operation3()&lt;/span&gt;&lt;/span&gt;&lt;/div&gt;" style="part=1;resizeHeight=0;strokeColor=none;fillColor=none;align=left;verticalAlign=middle;spacingLeft=4;spacingRight=4;rotatable=0;points=[[0,0.5],[1,0.5]];portConstraint=eastwest;swimlaneFillColor=#unset;strokeOpacity=100;whiteSpace=wrap;overflow=block;blockSpacing=1;html=1;fontSize=13;" vertex="1" parent="nKMYG4mPL0dKVgIFnyG0-6">
          <mxGeometry y="134" width="283" height="111.25" as="geometry" />
        </mxCell>
        <mxCell id="nKMYG4mPL0dKVgIFnyG0-10" value="FlyingAssassin" style="html=1;overflow=block;blockSpacing=1;swimlane;childLayout=stackLayout;horizontal=1;horizontalStack=0;resizeParent=1;resizeParentMax=0;resizeLast=0;collapsible=0;marginBottom=0;swimlaneFillColor=#unset;startSize=25;whiteSpace=wrap;fontSize=16.8;fontStyle=1;align=center;spacing=0;strokeColor=#3a414a;strokeOpacity=100;rounded=1;absoluteArcSize=1;arcSize=9;fillColor=#unset;strokeWidth=NaN;" vertex="1" parent="1">
          <mxGeometry x="-1470" y="-2102" width="283" height="245.25" as="geometry" />
        </mxCell>
        <mxCell id="nKMYG4mPL0dKVgIFnyG0-11" value="&lt;div style=&quot;display: flex; justify-content: center; text-align: center; align-items: baseline; font-size: 0; line-height: 1.25;margin-top: -2px;&quot;&gt;&lt;span&gt;&lt;span style=&quot;font-size:16.8px;&quot;&gt;+ attribute1:type = defaultValue&#xa;&lt;/span&gt;&lt;/span&gt;&lt;/div&gt;&lt;div style=&quot;display: flex; justify-content: center; text-align: center; align-items: baseline; font-size: 0; line-height: 1.25;margin-top: -2px;&quot;&gt;&lt;span&gt;&lt;span style=&quot;font-size:16.8px;&quot;&gt;+ attribute2:type&#xa;&lt;/span&gt;&lt;/span&gt;&lt;/div&gt;&lt;div style=&quot;display: flex; justify-content: center; text-align: center; align-items: baseline; font-size: 0; line-height: 1.25;margin-top: -2px;&quot;&gt;&lt;span&gt;&lt;span style=&quot;font-size:16.8px;&quot;&gt;- attribute3:type&lt;/span&gt;&lt;/span&gt;&lt;/div&gt;" style="part=1;html=1;resizeHeight=0;strokeColor=none;fillColor=none;verticalAlign=middle;spacingLeft=4;spacingRight=4;overflow=hidden;rotatable=0;points=[[0,0.5],[1,0.5]];portConstraint=eastwest;swimlaneFillColor=#unset;strokeOpacity=100;whiteSpace=wrap;fontSize=16.8;align=center;" vertex="1" parent="nKMYG4mPL0dKVgIFnyG0-10">
          <mxGeometry y="25" width="283" height="101" as="geometry" />
        </mxCell>
        <mxCell id="nKMYG4mPL0dKVgIFnyG0-12" value="" style="line;strokeWidth=1;fillColor=none;align=left;verticalAlign=middle;spacingTop=-1;spacingLeft=3;spacingRight=3;rotatable=0;labelPosition=right;points=[];portConstraint=eastwest;" vertex="1" parent="nKMYG4mPL0dKVgIFnyG0-10">
          <mxGeometry y="126" width="283" height="8" as="geometry" />
        </mxCell>
        <mxCell id="nKMYG4mPL0dKVgIFnyG0-13" value="&lt;div style=&quot;display: flex; justify-content: center; text-align: center; align-items: baseline; font-size: 0; line-height: 1.25;margin-top: -2px;&quot;&gt;&lt;span&gt;&lt;span style=&quot;font-size:16.8px;&quot;&gt;+ operation1(params):returnType&#xa;&lt;/span&gt;&lt;/span&gt;&lt;/div&gt;&lt;div style=&quot;display: flex; justify-content: center; text-align: center; align-items: baseline; font-size: 0; line-height: 1.25;margin-top: -2px;&quot;&gt;&lt;span&gt;&lt;span style=&quot;font-size:16.8px;&quot;&gt;- operation2(params)&#xa;&lt;/span&gt;&lt;/span&gt;&lt;/div&gt;&lt;div style=&quot;display: flex; justify-content: center; text-align: center; align-items: baseline; font-size: 0; line-height: 1.25;margin-top: -2px;&quot;&gt;&lt;span&gt;&lt;span style=&quot;font-size:16.8px;&quot;&gt;- operation3()&lt;/span&gt;&lt;/span&gt;&lt;/div&gt;" style="part=1;resizeHeight=0;strokeColor=none;fillColor=none;align=left;verticalAlign=middle;spacingLeft=4;spacingRight=4;rotatable=0;points=[[0,0.5],[1,0.5]];portConstraint=eastwest;swimlaneFillColor=#unset;strokeOpacity=100;whiteSpace=wrap;overflow=block;blockSpacing=1;html=1;fontSize=13;" vertex="1" parent="nKMYG4mPL0dKVgIFnyG0-10">
          <mxGeometry y="134" width="283" height="111.25" as="geometry" />
        </mxCell>
        <mxCell id="nKMYG4mPL0dKVgIFnyG0-14" value="FloorFollowingThief" style="html=1;overflow=block;blockSpacing=1;swimlane;childLayout=stackLayout;horizontal=1;horizontalStack=0;resizeParent=1;resizeParentMax=0;resizeLast=0;collapsible=0;marginBottom=0;swimlaneFillColor=#unset;startSize=25;whiteSpace=wrap;fontSize=16.8;fontStyle=1;align=center;spacing=0;strokeColor=#3a414a;strokeOpacity=100;rounded=1;absoluteArcSize=1;arcSize=9;fillColor=#unset;strokeWidth=NaN;" vertex="1" parent="1">
          <mxGeometry x="-1110" y="-2102" width="283" height="245.25" as="geometry" />
        </mxCell>
        <mxCell id="nKMYG4mPL0dKVgIFnyG0-15" value="&lt;div style=&quot;display: flex; justify-content: center; text-align: center; align-items: baseline; font-size: 0; line-height: 1.25;margin-top: -2px;&quot;&gt;&lt;span&gt;&lt;span style=&quot;font-size:16.8px;&quot;&gt;+ attribute1:type = defaultValue&#xa;&lt;/span&gt;&lt;/span&gt;&lt;/div&gt;&lt;div style=&quot;display: flex; justify-content: center; text-align: center; align-items: baseline; font-size: 0; line-height: 1.25;margin-top: -2px;&quot;&gt;&lt;span&gt;&lt;span style=&quot;font-size:16.8px;&quot;&gt;+ attribute2:type&#xa;&lt;/span&gt;&lt;/span&gt;&lt;/div&gt;&lt;div style=&quot;display: flex; justify-content: center; text-align: center; align-items: baseline; font-size: 0; line-height: 1.25;margin-top: -2px;&quot;&gt;&lt;span&gt;&lt;span style=&quot;font-size:16.8px;&quot;&gt;- attribute3:type&lt;/span&gt;&lt;/span&gt;&lt;/div&gt;" style="part=1;html=1;resizeHeight=0;strokeColor=none;fillColor=none;verticalAlign=middle;spacingLeft=4;spacingRight=4;overflow=hidden;rotatable=0;points=[[0,0.5],[1,0.5]];portConstraint=eastwest;swimlaneFillColor=#unset;strokeOpacity=100;whiteSpace=wrap;fontSize=16.8;align=center;" vertex="1" parent="nKMYG4mPL0dKVgIFnyG0-14">
          <mxGeometry y="25" width="283" height="101" as="geometry" />
        </mxCell>
        <mxCell id="nKMYG4mPL0dKVgIFnyG0-16" value="" style="line;strokeWidth=1;fillColor=none;align=left;verticalAlign=middle;spacingTop=-1;spacingLeft=3;spacingRight=3;rotatable=0;labelPosition=right;points=[];portConstraint=eastwest;" vertex="1" parent="nKMYG4mPL0dKVgIFnyG0-14">
          <mxGeometry y="126" width="283" height="8" as="geometry" />
        </mxCell>
        <mxCell id="nKMYG4mPL0dKVgIFnyG0-17" value="&lt;div style=&quot;display: flex; justify-content: center; text-align: center; align-items: baseline; font-size: 0; line-height: 1.25;margin-top: -2px;&quot;&gt;&lt;span&gt;&lt;span style=&quot;font-size:16.8px;&quot;&gt;+ operation1(params):returnType&#xa;&lt;/span&gt;&lt;/span&gt;&lt;/div&gt;&lt;div style=&quot;display: flex; justify-content: center; text-align: center; align-items: baseline; font-size: 0; line-height: 1.25;margin-top: -2px;&quot;&gt;&lt;span&gt;&lt;span style=&quot;font-size:16.8px;&quot;&gt;- operation2(params)&#xa;&lt;/span&gt;&lt;/span&gt;&lt;/div&gt;&lt;div style=&quot;display: flex; justify-content: center; text-align: center; align-items: baseline; font-size: 0; line-height: 1.25;margin-top: -2px;&quot;&gt;&lt;span&gt;&lt;span style=&quot;font-size:16.8px;&quot;&gt;- operation3()&lt;/span&gt;&lt;/span&gt;&lt;/div&gt;" style="part=1;resizeHeight=0;strokeColor=none;fillColor=none;align=left;verticalAlign=middle;spacingLeft=4;spacingRight=4;rotatable=0;points=[[0,0.5],[1,0.5]];portConstraint=eastwest;swimlaneFillColor=#unset;strokeOpacity=100;whiteSpace=wrap;overflow=block;blockSpacing=1;html=1;fontSize=13;" vertex="1" parent="nKMYG4mPL0dKVgIFnyG0-14">
          <mxGeometry y="134" width="283" height="111.25" as="geometry" />
        </mxCell>
        <mxCell id="nKMYG4mPL0dKVgIFnyG0-18" value="PathFinder - Static?" style="html=1;overflow=block;blockSpacing=1;swimlane;childLayout=stackLayout;horizontal=1;horizontalStack=0;resizeParent=1;resizeParentMax=0;resizeLast=0;collapsible=0;marginBottom=0;swimlaneFillColor=#ffffff;startSize=25;whiteSpace=wrap;fontSize=16.8;fontColor=#282c33;fontStyle=1;align=center;spacing=0;strokeColor=#3a414a;strokeOpacity=100;fillOpacity=100;rounded=1;absoluteArcSize=1;arcSize=9;fillColor=#ffffff;strokeWidth=1.5;" vertex="1" parent="1">
          <mxGeometry x="-2175" y="-1830" width="283" height="245.25" as="geometry" />
        </mxCell>
        <mxCell id="nKMYG4mPL0dKVgIFnyG0-19" value="+currentLevel:Level" style="part=1;html=1;resizeHeight=0;strokeColor=none;fillColor=none;verticalAlign=middle;spacingLeft=4;spacingRight=4;overflow=hidden;rotatable=0;points=[[0,0.5],[1,0.5]];portConstraint=eastwest;swimlaneFillColor=#ffffff;strokeOpacity=100;fillOpacity=100;whiteSpace=wrap;fontSize=16.8;fontColor=#282c33;align=center;" vertex="1" parent="nKMYG4mPL0dKVgIFnyG0-18">
          <mxGeometry y="25" width="283" height="101" as="geometry" />
        </mxCell>
        <mxCell id="nKMYG4mPL0dKVgIFnyG0-20" value="" style="line;strokeWidth=1;fillColor=none;align=left;verticalAlign=middle;spacingTop=-1;spacingLeft=3;spacingRight=3;rotatable=0;labelPosition=right;points=[];portConstraint=eastwest;" vertex="1" parent="nKMYG4mPL0dKVgIFnyG0-18">
          <mxGeometry y="126" width="283" height="8" as="geometry" />
        </mxCell>
        <mxCell id="nKMYG4mPL0dKVgIFnyG0-21" value="&lt;div style=&quot;display: flex; justify-content: center; text-align: center; align-items: baseline; font-size: 0; line-height: 1.25;margin-top: -2px;&quot;&gt;&lt;span&gt;&lt;span style=&quot;font-size:16.8px;color:#282c33;&quot;&gt;+ BFSForItem(currentLocation) : queue&amp;lt;Location&amp;gt; = tile positions for path.&#xa;&lt;/span&gt;&lt;/span&gt;&lt;/div&gt;&lt;div style=&quot;display: flex; justify-content: center; text-align: center; align-items: baseline; font-size: 0; line-height: 1.25;margin-top: -2px;&quot;&gt;&lt;span&gt;&lt;span style=&quot;font-size:16.8px;color:#282c33;&quot;&gt;+ resolveMove(currentLocation, direction{enum?}) : location =return next location, same location if move is invalid&#xa;&lt;/span&gt;&lt;/span&gt;&lt;/div&gt;&lt;div style=&quot;display: flex; justify-content: center; text-align: center; align-items: baseline; font-size: 0; line-height: 1.25;margin-top: -2px;&quot;&gt;&lt;span&gt;&lt;span style=&quot;font-size:16.8px;color:#282c33;&quot;&gt;+isValidMove(currentLocation, direction{enum?}) : Bool&#xa;&lt;/span&gt;&lt;/span&gt;&lt;/div&gt;&lt;div style=&quot;display: flex; justify-content: center; text-align: center; align-items: baseline; font-size: 0; line-height: 1.25;margin-top: -2px;&quot;&gt;&lt;span&gt;&lt;/span&gt;&lt;/div&gt;" style="part=1;html=1;resizeHeight=0;strokeColor=none;fillColor=none;verticalAlign=middle;spacingLeft=4;spacingRight=4;overflow=hidden;rotatable=0;points=[[0,0.5],[1,0.5]];portConstraint=eastwest;swimlaneFillColor=#ffffff;strokeOpacity=100;fillOpacity=100;whiteSpace=wrap;fontSize=16.8;fontColor=#282c33;align=center;" vertex="1" parent="nKMYG4mPL0dKVgIFnyG0-18">
          <mxGeometry y="134" width="283" height="111.25" as="geometry" />
        </mxCell>
        <mxCell id="nKMYG4mPL0dKVgIFnyG0-22" value="LootItem" style="html=1;overflow=block;blockSpacing=1;swimlane;childLayout=stackLayout;horizontal=1;horizontalStack=0;resizeParent=1;resizeParentMax=0;resizeLast=0;collapsible=0;marginBottom=0;swimlaneFillColor=#unset;startSize=25;whiteSpace=wrap;fontSize=16.8;fontStyle=1;align=center;spacing=0;strokeColor=#3a414a;strokeOpacity=100;rounded=1;absoluteArcSize=1;arcSize=9;fillColor=#unset;strokeWidth=NaN;" vertex="1" parent="1">
          <mxGeometry x="-1470" y="-1815" width="283" height="245.25" as="geometry" />
        </mxCell>
        <mxCell id="nKMYG4mPL0dKVgIFnyG0-23" value="&lt;div style=&quot;display: flex; justify-content: center; text-align: center; align-items: baseline; font-size: 0; line-height: 1.25;margin-top: -2px;&quot;&gt;&lt;span&gt;&lt;span style=&quot;font-size:16.8px;&quot;&gt;+ attribute1:type = defaultValue&#xa;&lt;/span&gt;&lt;/span&gt;&lt;/div&gt;&lt;div style=&quot;display: flex; justify-content: center; text-align: center; align-items: baseline; font-size: 0; line-height: 1.25;margin-top: -2px;&quot;&gt;&lt;span&gt;&lt;span style=&quot;font-size:16.8px;&quot;&gt;+ attribute2:type&#xa;&lt;/span&gt;&lt;/span&gt;&lt;/div&gt;&lt;div style=&quot;display: flex; justify-content: center; text-align: center; align-items: baseline; font-size: 0; line-height: 1.25;margin-top: -2px;&quot;&gt;&lt;span&gt;&lt;span style=&quot;font-size:16.8px;&quot;&gt;- attribute3:type&lt;/span&gt;&lt;/span&gt;&lt;/div&gt;" style="part=1;html=1;resizeHeight=0;strokeColor=none;fillColor=none;verticalAlign=middle;spacingLeft=4;spacingRight=4;overflow=hidden;rotatable=0;points=[[0,0.5],[1,0.5]];portConstraint=eastwest;swimlaneFillColor=#unset;strokeOpacity=100;whiteSpace=wrap;fontSize=16.8;align=center;" vertex="1" parent="nKMYG4mPL0dKVgIFnyG0-22">
          <mxGeometry y="25" width="283" height="101" as="geometry" />
        </mxCell>
        <mxCell id="nKMYG4mPL0dKVgIFnyG0-24" value="" style="line;strokeWidth=1;fillColor=none;align=left;verticalAlign=middle;spacingTop=-1;spacingLeft=3;spacingRight=3;rotatable=0;labelPosition=right;points=[];portConstraint=eastwest;" vertex="1" parent="nKMYG4mPL0dKVgIFnyG0-22">
          <mxGeometry y="126" width="283" height="8" as="geometry" />
        </mxCell>
        <mxCell id="nKMYG4mPL0dKVgIFnyG0-25" value="&lt;div style=&quot;display: flex; justify-content: center; text-align: center; align-items: baseline; font-size: 0; line-height: 1.25;margin-top: -2px;&quot;&gt;&lt;span&gt;&lt;span style=&quot;font-size:16.8px;&quot;&gt;+ operation1(params):returnType&#xa;&lt;/span&gt;&lt;/span&gt;&lt;/div&gt;&lt;div style=&quot;display: flex; justify-content: center; text-align: center; align-items: baseline; font-size: 0; line-height: 1.25;margin-top: -2px;&quot;&gt;&lt;span&gt;&lt;span style=&quot;font-size:16.8px;&quot;&gt;- operation2(params)&#xa;&lt;/span&gt;&lt;/span&gt;&lt;/div&gt;&lt;div style=&quot;display: flex; justify-content: center; text-align: center; align-items: baseline; font-size: 0; line-height: 1.25;margin-top: -2px;&quot;&gt;&lt;span&gt;&lt;span style=&quot;font-size:16.8px;&quot;&gt;- operation3()&lt;/span&gt;&lt;/span&gt;&lt;/div&gt;" style="part=1;resizeHeight=0;strokeColor=none;fillColor=none;align=left;verticalAlign=middle;spacingLeft=4;spacingRight=4;rotatable=0;points=[[0,0.5],[1,0.5]];portConstraint=eastwest;swimlaneFillColor=#unset;strokeOpacity=100;whiteSpace=wrap;overflow=block;blockSpacing=1;html=1;fontSize=13;" vertex="1" parent="nKMYG4mPL0dKVgIFnyG0-22">
          <mxGeometry y="134" width="283" height="111.25" as="geometry" />
        </mxCell>
        <mxCell id="nKMYG4mPL0dKVgIFnyG0-26" value="" style="html=1;jettySize=18;whiteSpace=wrap;fontSize=13;strokeColor=#333333;strokeOpacity=100;strokeWidth=0.8;rounded=1;arcSize=24;edgeStyle=orthogonalEdgeStyle;startArrow=none;endArrow=block;endFill=1;exitX=0;exitY=0.5;exitPerimeter=0;entryX=1;entryY=0.5;entryPerimeter=0;lucidId=Qgg23CW6RYAF;" edge="1" parent="1" source="nKMYG4mPL0dKVgIFnyG0-18" target="nKMYG4mPL0dKVgIFnyG0-28">
          <mxGeometry width="100" height="100" relative="1" as="geometry">
            <Array as="points" />
          </mxGeometry>
        </mxCell>
        <mxCell id="nKMYG4mPL0dKVgIFnyG0-27" value="Get Collectible Locations" style="text;html=1;resizable=0;labelBackgroundColor=default;align=center;verticalAlign=middle;fontSize=16.8;" vertex="1" parent="nKMYG4mPL0dKVgIFnyG0-26">
          <mxGeometry x="0.10149540365050047" relative="1" as="geometry" />
        </mxCell>
        <mxCell id="nKMYG4mPL0dKVgIFnyG0-28" value="Level" style="html=1;overflow=block;blockSpacing=1;whiteSpace=wrap;fontSize=16.8;align=center;spacing=3.8;strokeOpacity=100;fillColor=#unset;strokeWidth=NaN;lucidId=xhg2yAPGNu55;" vertex="1" parent="1">
          <mxGeometry x="-2520" y="-1752" width="120" height="120" as="geometry" />
        </mxCell>
        <mxCell id="nKMYG4mPL0dKVgIFnyG0-29" value="" style="html=1;jettySize=18;whiteSpace=wrap;fontSize=13;strokeColor=#333333;strokeOpacity=100;strokeWidth=0.8;rounded=1;arcSize=24;edgeStyle=orthogonalEdgeStyle;startArrow=none;endArrow=block;endFill=1;exitX=0;exitY=0.95;exitPerimeter=0;entryX=1;entryY=1;entryPerimeter=0;lucidId=5qg2csK~S7Iu;" edge="1" parent="1" source="nKMYG4mPL0dKVgIFnyG0-18" target="nKMYG4mPL0dKVgIFnyG0-28">
          <mxGeometry width="100" height="100" relative="1" as="geometry">
            <Array as="points" />
          </mxGeometry>
        </mxCell>
        <mxCell id="nKMYG4mPL0dKVgIFnyG0-30" value="Get Tile" style="text;html=1;resizable=0;labelBackgroundColor=default;align=center;verticalAlign=middle;fontSize=16.8;" vertex="1" parent="nKMYG4mPL0dKVgIFnyG0-29">
          <mxGeometry x="-0.44773407754888594" relative="1" as="geometry" />
        </mxCell>
        <mxCell id="nKMYG4mPL0dKVgIFnyG0-31" value="&lt;div style=&quot;display: flex; justify-content: null; text-align: null; align-items: baseline; font-size: 0; line-height: 1.25;margin-top: -2px;&quot;&gt;&lt;span&gt;&lt;span style=&quot;font-size:15.5px;color:#000000;&quot;&gt;«NPC»&#xa;&lt;/span&gt;&lt;/span&gt;&lt;/div&gt;&lt;div style=&quot;display: flex; justify-content: null; text-align: null; align-items: baseline; font-size: 0; line-height: 1.25;margin-top: -2px;&quot;&gt;&lt;span&gt;&lt;span style=&quot;font-size:15.5px;color:#000000;&quot;&gt;Interface&lt;/span&gt;&lt;/span&gt;&lt;/div&gt;" style="swimlane;childLayout=stackLayout;horizontal=1;horizontalStack=0;resizeParent=1;resizeParentMax=0;resizeLast=0;collapsible=0;fontStyle=0;marginBottom=0;swimlaneFillColor=#ffffff;startSize=44;whiteSpace=wrap;overflow=block;blockSpacing=1;html=1;fontSize=13;align=left;spacing=0;strokeColor=#282c33;strokeOpacity=100;fillOpacity=100;rounded=1;absoluteArcSize=1;arcSize=9;fillColor=#ffffff;strokeWidth=1.5;" vertex="1" parent="1">
          <mxGeometry x="-1463" y="-2385" width="270" height="268" as="geometry" />
        </mxCell>
        <mxCell id="nKMYG4mPL0dKVgIFnyG0-32" value="&lt;div style=&quot;display: flex; justify-content: null; text-align: null; align-items: baseline; font-size: 0; line-height: 1.25;margin-top: -2px;&quot;&gt;&lt;span&gt;&lt;span style=&quot;font-size:15.5px;color:#000000;&quot;&gt;+ operation1(params):returnType&#xa;&lt;/span&gt;&lt;/span&gt;&lt;/div&gt;&lt;div style=&quot;display: flex; justify-content: null; text-align: null; align-items: baseline; font-size: 0; line-height: 1.25;margin-top: -2px;&quot;&gt;&lt;span&gt;&lt;span style=&quot;font-size:15.5px;color:#000000;&quot;&gt;- operation2(params)&#xa;&lt;/span&gt;&lt;/span&gt;&lt;/div&gt;&lt;div style=&quot;display: flex; justify-content: center; text-align: center; align-items: baseline; font-size: 0; line-height: 1.25;margin-top: -2px;&quot;&gt;&lt;span&gt;&lt;/span&gt;&lt;/div&gt;" style="part=1;resizeHeight=0;strokeColor=none;fillColor=none;align=left;verticalAlign=middle;spacingLeft=4;spacingRight=4;rotatable=0;points=[[0,0.5],[1,0.5]];portConstraint=eastwest;swimlaneFillColor=#ffffff;strokeOpacity=100;fillOpacity=100;whiteSpace=wrap;overflow=block;blockSpacing=1;html=1;fontSize=13;" vertex="1" parent="nKMYG4mPL0dKVgIFnyG0-31">
          <mxGeometry y="44" width="270" height="224" as="geometry" />
        </mxCell>
        <mxCell id="nKMYG4mPL0dKVgIFnyG0-33" value="&lt;div style=&quot;display: flex; justify-content: null; text-align: null; align-items: baseline; font-size: 0; line-height: 1.25;margin-top: -2px;&quot;&gt;&lt;span&gt;&lt;span style=&quot;font-size:15.5px;color:#000000;&quot;&gt;«&lt;/span&gt;&lt;span style=&quot;font-size:15.5px;&quot;&gt;Location&lt;/span&gt;&lt;span style=&quot;font-size:15.5px;color:#000000;&quot;&gt;»&#xa;&lt;/span&gt;&lt;/span&gt;&lt;/div&gt;&lt;div style=&quot;display: flex; justify-content: null; text-align: null; align-items: baseline; font-size: 0; line-height: 1.25;margin-top: -2px;&quot;&gt;&lt;span&gt;&lt;span style=&quot;font-size:15.5px;&quot;&gt;&lt;span style=&quot;font-size:15.5px;&quot;&gt;DataWrapper&lt;/span&gt;&lt;/span&gt;&lt;/span&gt;&lt;/div&gt;" style="swimlane;childLayout=stackLayout;horizontal=1;horizontalStack=0;resizeParent=1;resizeParentMax=0;resizeLast=0;collapsible=0;fontStyle=0;marginBottom=0;swimlaneFillColor=#ffffff;startSize=44;whiteSpace=wrap;overflow=block;blockSpacing=1;html=1;fontSize=13;align=left;spacing=0;strokeColor=#282c33;strokeOpacity=100;fillOpacity=100;rounded=1;absoluteArcSize=1;arcSize=9;fillColor=#ffffff;strokeWidth=1.5;" vertex="1" parent="1">
          <mxGeometry x="-2490" y="-2102" width="270" height="268" as="geometry" />
        </mxCell>
        <mxCell id="nKMYG4mPL0dKVgIFnyG0-34" value="&lt;div style=&quot;display: flex; justify-content: null; text-align: null; align-items: baseline; font-size: 0; line-height: 1.25;margin-top: -2px;&quot;&gt;&lt;span&gt;&lt;span style=&quot;font-size:15.5px;&quot;&gt;+Xpos:Int&#xa;&lt;/span&gt;&lt;/span&gt;&lt;/div&gt;&lt;div style=&quot;display: flex; justify-content: null; text-align: null; align-items: baseline; font-size: 0; line-height: 1.25;margin-top: -2px;&quot;&gt;&lt;span&gt;&lt;span style=&quot;font-size:15.5px;&quot;&gt;+Ypos:Int&lt;/span&gt;&lt;/span&gt;&lt;/div&gt;" style="part=1;resizeHeight=0;strokeColor=none;fillColor=none;align=left;verticalAlign=middle;spacingLeft=4;spacingRight=4;rotatable=0;points=[[0,0.5],[1,0.5]];portConstraint=eastwest;swimlaneFillColor=#ffffff;strokeOpacity=100;fillOpacity=100;whiteSpace=wrap;overflow=block;blockSpacing=1;html=1;fontSize=13;" vertex="1" parent="nKMYG4mPL0dKVgIFnyG0-33">
          <mxGeometry y="44" width="270" height="224" as="geometry" />
        </mxCell>
        <mxCell id="nKMYG4mPL0dKVgIFnyG0-35" value="" style="html=1;jettySize=18;whiteSpace=wrap;fontSize=13;strokeColor=#333333;strokeOpacity=100;strokeWidth=0.8;rounded=1;arcSize=24;edgeStyle=orthogonalEdgeStyle;startArrow=none;endArrow=block;endFill=1;exitX=0.5;exitY=1;exitPerimeter=0;entryX=0.5;entryY=0;entryPerimeter=0;lucidId=tvg2V.IhYz7D;" edge="1" parent="1" source="nKMYG4mPL0dKVgIFnyG0-2" target="nKMYG4mPL0dKVgIFnyG0-18">
          <mxGeometry width="100" height="100" relative="1" as="geometry">
            <Array as="points" />
          </mxGeometry>
        </mxCell>
        <mxCell id="nKMYG4mPL0dKVgIFnyG0-36" value="Find move location" style="text;html=1;resizable=0;labelBackgroundColor=default;align=center;verticalAlign=middle;fontSize=16.8;" vertex="1" parent="nKMYG4mPL0dKVgIFnyG0-35">
          <mxGeometry x="-0.8048517647670632" relative="1" as="geometry" />
        </mxCell>
        <mxCell id="nKMYG4mPL0dKVgIFnyG0-37" value="" style="html=1;jettySize=18;whiteSpace=wrap;fontSize=13;strokeColor=#333333;strokeOpacity=100;strokeWidth=0.8;rounded=1;arcSize=24;edgeStyle=orthogonalEdgeStyle;startArrow=none;endArrow=block;endFill=1;exitX=0;exitY=0.5;exitPerimeter=0;entryX=1;entryY=0.5;entryPerimeter=0;lucidId=TGw2EGssz3aX;" edge="1" parent="1" source="nKMYG4mPL0dKVgIFnyG0-6" target="nKMYG4mPL0dKVgIFnyG0-18">
          <mxGeometry width="100" height="100" relative="1" as="geometry">
            <Array as="points" />
          </mxGeometry>
        </mxCell>
        <mxCell id="nKMYG4mPL0dKVgIFnyG0-38" value="&lt;div style=&quot;display: flex; justify-content: center; text-align: center; align-items: baseline; font-size: 0; line-height: 1.25;margin-top: -2px;&quot;&gt;&lt;span&gt;&lt;span style=&quot;font-size:16.8px;&quot;&gt;BFS pathfind&#xa;&lt;/span&gt;&lt;/span&gt;&lt;/div&gt;&lt;div style=&quot;display: flex; justify-content: center; text-align: center; align-items: baseline; font-size: 0; line-height: 1.25;margin-top: -2px;&quot;&gt;&lt;span&gt;&lt;span style=&quot;font-size:16.8px;&quot;&gt;to nearest collectable&lt;/span&gt;&lt;/span&gt;&lt;/div&gt;" style="text;html=1;resizable=0;labelBackgroundColor=default;align=center;verticalAlign=middle;" vertex="1" parent="nKMYG4mPL0dKVgIFnyG0-37">
          <mxGeometry x="-0.4876611116384987" relative="1" as="geometry" />
        </mxCell>
        <mxCell id="nKMYG4mPL0dKVgIFnyG0-39" value="Level" style="html=1;overflow=block;blockSpacing=1;whiteSpace=wrap;fontSize=16.8;align=center;spacing=3.8;strokeOpacity=100;fillColor=#unset;strokeWidth=NaN;lucidId=mJw2fi9Vehhf;" vertex="1" parent="1">
          <mxGeometry x="-1690" y="-1593" width="120" height="120" as="geometry" />
        </mxCell>
        <mxCell id="nKMYG4mPL0dKVgIFnyG0-40" value="Item" style="html=1;overflow=block;blockSpacing=1;whiteSpace=wrap;fontSize=16.8;align=center;spacing=3.8;strokeOpacity=100;fillColor=#unset;strokeWidth=NaN;lucidId=nJw24I-RLsQS;" vertex="1" parent="1">
          <mxGeometry x="-1080" y="-1593" width="120" height="120" as="geometry" />
        </mxCell>
        <mxCell id="nKMYG4mPL0dKVgIFnyG0-41" value="&lt;div style=&quot;display: flex; justify-content: null; text-align: null; align-items: baseline; font-size: 0; line-height: 1.25;margin-top: -2px;&quot;&gt;&lt;span&gt;&lt;span style=&quot;font-size:15.5px;color:#000000;&quot;&gt;«&lt;/span&gt;&lt;span style=&quot;font-size:15.5px;&quot;&gt;Character&lt;/span&gt;&lt;span style=&quot;font-size:15.5px;color:#000000;&quot;&gt;»&#xa;&lt;/span&gt;&lt;/span&gt;&lt;/div&gt;&lt;div style=&quot;display: flex; justify-content: null; text-align: null; align-items: baseline; font-size: 0; line-height: 1.25;margin-top: -2px;&quot;&gt;&lt;span&gt;&lt;span style=&quot;font-size:15.5px;color:#000000;&quot;&gt;Interface&lt;/span&gt;&lt;/span&gt;&lt;/div&gt;" style="swimlane;childLayout=stackLayout;horizontal=1;horizontalStack=0;resizeParent=1;resizeParentMax=0;resizeLast=0;collapsible=0;fontStyle=0;marginBottom=0;swimlaneFillColor=#ffffff;startSize=44;whiteSpace=wrap;overflow=block;blockSpacing=1;html=1;fontSize=13;align=left;spacing=0;strokeColor=#282c33;strokeOpacity=100;fillOpacity=100;rounded=1;absoluteArcSize=1;arcSize=9;fillColor=#ffffff;strokeWidth=1.5;" vertex="1" parent="1">
          <mxGeometry x="-1856" y="-2567" width="270" height="268" as="geometry" />
        </mxCell>
        <mxCell id="nKMYG4mPL0dKVgIFnyG0-42" value="&lt;div style=&quot;display: flex; justify-content: null; text-align: null; align-items: baseline; font-size: 0; line-height: 1.25;margin-top: -2px;&quot;&gt;&lt;span&gt;&lt;span style=&quot;font-size:15.5px;color:#000000;&quot;&gt;+ location:Location&#xa;&lt;/span&gt;&lt;/span&gt;&lt;/div&gt;&lt;div style=&quot;display: flex; justify-content: null; text-align: null; align-items: baseline; font-size: 0; line-height: 1.25;margin-top: -2px;&quot;&gt;&lt;span&gt;&lt;span style=&quot;font-size:15.5px;color:#000000;&quot;&gt;+ &lt;/span&gt;&lt;span style=&quot;font-size:15.5px;&quot;&gt;Move&lt;/span&gt;&lt;span style=&quot;font-size:15.5px;color:#000000;&quot;&gt;(&lt;/span&gt;&lt;span style=&quot;font-size:15.5px;&quot;&gt;newLocation&lt;/span&gt;&lt;span style=&quot;font-size:15.5px;color:#000000;&quot;&gt;)&lt;/span&gt;&lt;/span&gt;&lt;/div&gt;" style="part=1;resizeHeight=0;strokeColor=none;fillColor=none;align=left;verticalAlign=middle;spacingLeft=4;spacingRight=4;rotatable=0;points=[[0,0.5],[1,0.5]];portConstraint=eastwest;swimlaneFillColor=#ffffff;strokeOpacity=100;fillOpacity=100;whiteSpace=wrap;overflow=block;blockSpacing=1;html=1;fontSize=13;" vertex="1" parent="nKMYG4mPL0dKVgIFnyG0-41">
          <mxGeometry y="44" width="270" height="224" as="geometry" />
        </mxCell>
        <mxCell id="nKMYG4mPL0dKVgIFnyG0-43" value="" style="html=1;jettySize=18;whiteSpace=wrap;overflow=block;blockSpacing=1;fontSize=13;strokeColor=#333333;strokeOpacity=100;strokeWidth=0.8;rounded=1;arcSize=24;edgeStyle=orthogonalEdgeStyle;startArrow=block;startFill=0;startSize=12;endArrow=none;exitX=0.5;exitY=1;exitPerimeter=0;entryX=0.5;entryY=0;entryPerimeter=0;lucidId=QMw2jNnwRmfA;" edge="1" parent="1" source="nKMYG4mPL0dKVgIFnyG0-41" target="nKMYG4mPL0dKVgIFnyG0-2">
          <mxGeometry width="100" height="100" relative="1" as="geometry">
            <Array as="points" />
          </mxGeometry>
        </mxCell>
        <mxCell id="nKMYG4mPL0dKVgIFnyG0-44" value="" style="html=1;jettySize=18;whiteSpace=wrap;overflow=block;blockSpacing=1;fontSize=13;strokeColor=#333333;strokeOpacity=100;strokeWidth=0.8;rounded=1;arcSize=24;edgeStyle=orthogonalEdgeStyle;startArrow=block;startFill=0;startSize=12;endArrow=none;exitX=0.5;exitY=1;exitPerimeter=0;entryX=0;entryY=0.5;entryPerimeter=0;lucidId=WMw2uG-vwSGg;" edge="1" parent="1" source="nKMYG4mPL0dKVgIFnyG0-41" target="nKMYG4mPL0dKVgIFnyG0-31">
          <mxGeometry width="100" height="100" relative="1" as="geometry">
            <Array as="points" />
          </mxGeometry>
        </mxCell>
        <mxCell id="nKMYG4mPL0dKVgIFnyG0-45" value="" style="html=1;jettySize=18;whiteSpace=wrap;overflow=block;blockSpacing=1;fontSize=13;strokeColor=#333333;strokeOpacity=100;strokeWidth=0.8;rounded=1;arcSize=24;edgeStyle=orthogonalEdgeStyle;startArrow=none;endArrow=block;endFill=0;endSize=12;exitX=0.5;exitY=0;exitPerimeter=0;entryX=0.5;entryY=1;entryPerimeter=0;lucidId=zNw23adGU~X0;" edge="1" parent="1" source="nKMYG4mPL0dKVgIFnyG0-10" target="nKMYG4mPL0dKVgIFnyG0-31">
          <mxGeometry width="100" height="100" relative="1" as="geometry">
            <Array as="points" />
          </mxGeometry>
        </mxCell>
        <mxCell id="nKMYG4mPL0dKVgIFnyG0-46" value="" style="html=1;jettySize=18;whiteSpace=wrap;overflow=block;blockSpacing=1;fontSize=13;strokeColor=#333333;strokeOpacity=100;strokeWidth=0.8;rounded=1;arcSize=24;edgeStyle=orthogonalEdgeStyle;startArrow=block;startFill=0;startSize=12;endArrow=none;exitX=0.5;exitY=1;exitPerimeter=0;entryX=0.5;entryY=0;entryPerimeter=0;lucidId=RNw2HGvGh9Mr;" edge="1" parent="1" source="nKMYG4mPL0dKVgIFnyG0-31" target="nKMYG4mPL0dKVgIFnyG0-14">
          <mxGeometry width="100" height="100" relative="1" as="geometry">
            <Array as="points" />
          </mxGeometry>
        </mxCell>
        <mxCell id="nKMYG4mPL0dKVgIFnyG0-47" value="" style="html=1;jettySize=18;whiteSpace=wrap;overflow=block;blockSpacing=1;fontSize=13;strokeColor=#333333;strokeOpacity=100;strokeWidth=0.8;rounded=1;arcSize=24;edgeStyle=orthogonalEdgeStyle;startArrow=block;startFill=0;startSize=12;endArrow=none;exitX=0.5;exitY=1;exitPerimeter=0;entryX=0.5;entryY=0;entryPerimeter=0;lucidId=aOw2.Wb2fv4O;" edge="1" parent="1" source="nKMYG4mPL0dKVgIFnyG0-31" target="nKMYG4mPL0dKVgIFnyG0-6">
          <mxGeometry width="100" height="100" relative="1" as="geometry">
            <Array as="points" />
          </mxGeometry>
        </mxCell>
      </root>
    </mxGraphModel>
  </diagram>
</mxfile>
